# xmcd
#
# Track frame offsets:
# 150
# 17690
# 34060
# 53760
#
# Disc length: 953 seconds
#
#
# Revision: 3
# Processed by: cddbd v1.5.2PL0 Copyright (c) Steve Scherf et al.
# Submitted via: FreeRIP 2.945 
#
DISCID=2703b704
DTITLE=Shania Twain - Man! I Feel Like A Woman! [CD Single)
DYEAR=1999
DGENRE=Pop
TTITLE0=Man! I Feel Like A Woman!
TTITLE1=That Don't Impress Me Much
TTITLE2=Black Eyes, Blue Tears (Live-Direct TV)
TTITLE3=Man! I Feel Like A Woman! (Alternate Version)
EXTD=Jahr: 1999
EXTT0=
EXTT1=
EXTT2=
EXTT3=
PLAYORDER=
